<svg xmlns="http://www.w3.org/2000/svg" xmlns:xlink="http://www.w3.org/1999/xlink" id="Layer_1" x="0px" y="0px" viewBox="0 0 512 512" style="enable-background:new 0 0 512 512;" xml:space="preserve">
<style type="text/css">
	.st0{fill:#1D75E3;}
</style>
<title>Delivery Security 3</title>
<path class="st0" d="M503,394.2c0-0.1,0-0.2,0-0.3s0-0.2-0.1-0.4s0-0.2-0.1-0.3s-0.1-0.2-0.1-0.3s-0.1-0.2-0.1-0.3s-0.1-0.2-0.1-0.3  s-0.1-0.2-0.1-0.3s-0.1-0.2-0.1-0.3s-0.1-0.2-0.2-0.3s-0.1-0.2-0.2-0.3s-0.1-0.2-0.2-0.3s-0.1-0.2-0.2-0.3s-0.2-0.2-0.2-0.3  c0,0-0.1-0.1-0.1-0.1l-37.4-40.9c-4.1-4.5-9.8-7.1-15.8-7.1H408v-16.9c0.2-11.5-9-21-20.4-21.1c-0.2,0-0.4,0-0.6,0h-5.4  c2.2-9.9,3.4-19.9,3.4-30V114.7c0-2.7-1.4-5.1-3.8-6.3l-181-88.9c-1.9-1-4.2-1-6.1,0L12.9,108.2c-2.4,1.2-3.9,3.6-3.9,6.3V274  C9,320,37.7,374.3,75.8,400.3l117.4,80.1c2.4,1.6,5.5,1.6,7.9,0l35.2-23.9c3.7,7.1,11,11.6,19,11.6h11.9c3.2,14,16.2,25.4,31.6,25.4  s28.4-11.4,31.6-25.4H413c3.2,14,16.2,25.4,31.6,25.4s28.4-11.4,31.6-25.4h5.2c11.9-0.1,21.5-9.8,21.5-21.7v-51.6c0-0.1,0-0.1,0-0.2  C503,394.5,503,394.3,503,394.2z M234,441.1l-36.8,25L83.7,388.7C49.1,365.1,23,315.8,23,274V118.8l174-85.3l174,85.5V274  c-0.1,10.1-1.3,20.2-3.8,30H335c3.7-11,6-22.2,6-32.1V144.1c-0.1-2.7-1.6-5.1-4.1-6.3L200.3,70.8c-2-1-4.2-1-6.2,0L57.2,137.6  c-2.5,1.1-4.1,3.6-4.2,6.3v128c0,32.4,22,73.6,48.8,91.9l91.2,62.1c1.2,0.8,2.6,1.2,4,1.2c1.5,0,2.9-0.4,4.1-1.2l32.9-22.3V441.1z   M234,325.2v61.5l-36.8,25l-87.4-59.4c-23-15.7-42.8-52.5-42.8-80.3V148.3l130-63.5l130,63.6v123.4c0,9.7-2.6,20.1-6.9,32.1h-64.8  c-11.6-0.1-21.1,9.2-21.3,20.8C234,324.9,234,325,234,325.2z M298.8,479.2c-10.2,0-18.4-8.2-18.4-18.4s8.2-18.4,18.4-18.4  c10.2,0,18.4,8.2,18.4,18.4l0,0C317.2,471,309,479.2,298.8,479.2z M394,394.8V454h-63.6c-3.9-17.5-21.2-28.5-38.7-24.6  c-12.3,2.7-21.9,12.3-24.6,24.6h-11.9c-4.1-0.1-7.4-3.5-7.3-7.6c0,0,0,0,0,0V325.2c-0.1-3.9,3-7.1,6.9-7.2c0.1,0,0.3,0,0.4,0H387  c3.8-0.1,6.9,2.8,7,6.6c0,0.2,0,0.4,0,0.6V394.8z M408,356h39.9c2.1,0.1,4.1,1.1,5.5,2.7l26.6,29.3H408V356z M444.7,479.2  c-10.2,0-18.4-8.2-18.4-18.4s8.2-18.4,18.4-18.4c10.2,0,18.4,8.2,18.4,18.4l0,0C463,471,454.8,479.2,444.7,479.2z M489,446.3  c0,4.2-3.3,7.6-7.5,7.7h-5.2c-3.9-17.5-21.2-28.5-38.7-24.6c-12.3,2.7-21.9,12.3-24.6,24.6h-5v-52h81V446.3z"></path>
<path class="st0" d="M238.7,215.6l-55.5,50.8l-27.3-29.6c-2.6-2.9-7-3.1-9.9-0.5c-2.9,2.6-3.1,7-0.5,9.9c0,0,0.1,0.1,0.1,0.1  l32,34.7c2.6,2.8,7,3,9.9,0.4l60.7-55.6c2.9-2.6,3.1-7,0.5-9.9c-2.6-2.9-7-3.1-9.9-0.5C238.8,215.6,238.7,215.6,238.7,215.6  L238.7,215.6z"></path>
</svg>