<?xml version="1.0" encoding="UTF-8"?>
<!DOCTYPE svg PUBLIC "-//W3C//DTD SVG 1.1//EN" "http://www.w3.org/Graphics/SVG/1.1/DTD/svg11.dtd">
<!-- Creator: CorelDRAW 2020 (64-Bit) -->
<svg xmlns="http://www.w3.org/2000/svg" xml:space="preserve" width="6.94446in" height="6.94446in" version="1.1" style="shape-rendering:geometricPrecision; text-rendering:geometricPrecision; image-rendering:optimizeQuality; fill-rule:evenodd; clip-rule:evenodd"
viewBox="0 0 6944.46 6944.46"
 xmlns:xlink="http://www.w3.org/1999/xlink"
 xmlns:xodm="http://www.corel.com/coreldraw/odm/2003">
 <defs>
  <style type="text/css">
   <![CDATA[
    .fil0 {fill:none}
    .fil1 {fill:#ED3237}
   ]]>
  </style>
 </defs>
 <g id="Layer_x0020_1">
  <metadata id="CorelCorpID_0Corel-Layer"/>
  <g id="_1991312600432">
   <rect class="fil0" x="-1.1" y="1.1" width="6944.46" height="6944.46"/>
   <path class="fil1" d="M2633.93 2619.48c-478.15,-1.43 -956.59,-0.06 -1434.8,-0.06 -236.9,0 -483.3,-6.65 -719.01,-0.02 -100,2.81 -179.35,71.93 -184.37,171.22 -6.08,120.46 85,164.4 152.13,214.26 260.44,193.45 581.68,412.8 832.77,604.6 191.3,146.13 422.55,302.79 621.78,452.41l210.06 151.4c-17.91,87.29 -65.6,205.54 -94.71,296.32l-575.52 1776.27c-21.89,118.37 68.48,216.31 177.88,216.42 67.55,0.07 99.86,-29.61 140.14,-58.06l1593.35 -1157.73c38.26,-28.98 81.19,-62.5 117.52,-82.91l1362.2 986.94c74.21,56.13 151.2,110.1 227.24,164.75 59.89,43.05 168.97,143.93 254.18,146.88 110.85,3.84 199.85,-88.61 187.12,-203.89 -6.69,-60.61 -71.74,-231.15 -93.82,-298.09l-385.9 -1189c-36.82,-116.91 -176.21,-521.8 -192.55,-598.11 57.54,-33.56 529.71,-386.14 617.36,-448.02l626.6 -455.05c136.39,-100.55 278.02,-200.8 416.63,-302.05 66.82,-48.81 154.09,-92.41 156.53,-202.48 2.33,-105.31 -78.56,-181.41 -177.47,-185.89 -229.87,-10.39 -486.05,-0.19 -718.85,-0.19 -480.71,0 -961.35,0.02 -1442.06,0.02 -46.52,-177.85 -123.02,-386.89 -181.34,-564.11 -62.33,-189.42 -126.61,-379.02 -185.1,-569.93 -85.8,-280.06 -190.36,-572.42 -277.93,-854.59 -31.5,-101.48 -69.5,-187.26 -192.86,-186.45 -122.28,0.8 -159.08,80.85 -190.8,181.06 -89.66,283.26 -191.36,572.5 -278.29,854.44 -58.52,189.8 -122.56,381.69 -184.95,570.03l-183.17 569.59z"/>
  </g>
 </g>
</svg>
